<?xml version="1.0" encoding="utf-8"?>
<!-- Generator: Adobe Illustrator 23.0.1, SVG Export Plug-In . SVG Version: 6.00 Build 0)  -->
<svg version="1.1" id="Layer_1" xmlns="http://www.w3.org/2000/svg" xmlns:xlink="http://www.w3.org/1999/xlink" x="0px" y="0px"
	 viewBox="0 0 40.08 12.08" style="enable-background:new 0 0 40.08 12.08;" xml:space="preserve">
<style type="text/css">
	.st0{fill:#A5CE44;}
	.st1{fill:#FFFFFF;}
	.st2{font-family:'ArialMT';}
	.st3{font-size:2.0825px;}
</style>
<g>
	<path class="st0" d="M7.74,4.82C7.71,4.78,7.69,4.75,7.67,4.71c-0.15-0.24-0.82-1.18-2.09-1.2c-0.04,0-0.09,0-0.13,0
		C5.19,3.5,4.15,3.53,3.47,4.57V2.43c0,0,0.01-0.7-0.77-0.85C2.65,1.56,2.59,1.56,2.52,1.56c-0.23,0-0.86,0-0.86,0v6.33
		c0,0,0.01,0.95,0.4,1.63c0,0,0.31,0.54,0.96,0.86c0.02,0.01,0.04,0.02,0.07,0.03c0.15,0.08,0.88,0.45,1.86,0.47
		c0,0,0.93,0.03,1.67-0.3c0.01-0.01,0.02-0.01,0.04-0.01c0.1-0.04,0.8-0.28,1.2-1.13c0,0,0.39-0.73,0.45-1.55
		C8.31,7.89,8.55,6.05,7.74,4.82z M4.98,9.35C4.11,9.39,3.5,8.66,3.47,7.22C3.45,6.02,3.96,5.13,4.98,5.1
		c0.87-0.03,1.55,0.75,1.54,2.12C6.51,8.42,6.07,9.29,4.98,9.35z"/>
	<path class="st0" d="M12.65,3.68c0,0-2.43-0.28-3.5,1.53C9.13,5.23,9.12,5.25,9.11,5.27C9.03,5.4,8.63,6.13,8.67,7.48v3.27h1.86
		V7.17c0-0.04,0-0.09,0-0.13c-0.01-0.25,0.03-1.48,1.47-1.48h0.68L12.65,3.68z"/>
	<path class="st0" d="M17.59,3.88c-0.02-0.01-0.05-0.02-0.07-0.04c-0.86-0.44-1.85-0.36-2.4-0.26c-0.38,0.07-0.74,0.21-1.05,0.43
		c-1.03,0.72-1.24,1.85-1.24,1.85c-0.4,1.75,0.12,3.01,0.12,3.01c0.45,1.26,1.49,1.72,1.49,1.72c1.42,0.6,2.78,0.1,2.78,0.1
		c1.59-0.54,1.9-2.12,1.9-2.12h-1.34c-0.41,0-0.61,0.22-0.67,0.31c-0.04,0.06-0.09,0.12-0.14,0.16c-0.36,0.31-0.87,0.3-1.03,0.29
		c-0.04,0-0.08,0-0.12-0.01c-1.25-0.06-1.23-1.64-1.23-1.64h4.56c0.02,0,0.04-0.02,0.04-0.03C19.46,4.87,17.81,3.99,17.59,3.88z
		 M14.57,6.47c0,0,0.03-1.39,1.3-1.42c0.02,0,0.04,0,0.06,0c0.18-0.01,1.35,0,1.35,1.42H14.57z"/>
	<path class="st0" d="M24.27,3.88c-0.02-0.01-0.05-0.02-0.07-0.04c-0.86-0.44-1.85-0.36-2.4-0.26c-0.38,0.07-0.74,0.21-1.05,0.43
		c-1.03,0.72-1.24,1.85-1.24,1.85c-0.4,1.75,0.12,3.01,0.12,3.01c0.45,1.26,1.49,1.72,1.49,1.72c1.42,0.6,2.78,0.1,2.78,0.1
		c1.59-0.54,1.9-2.12,1.9-2.12h-1.34c-0.41,0-0.61,0.22-0.67,0.31c-0.04,0.06-0.09,0.12-0.14,0.16c-0.36,0.31-0.87,0.3-1.03,0.29
		c-0.04,0-0.08,0-0.12-0.01c-1.25-0.06-1.23-1.64-1.23-1.64h4.56c0.02,0,0.04-0.02,0.04-0.03C26.14,4.87,24.49,3.99,24.27,3.88z
		 M21.25,6.47c0,0,0.03-1.39,1.3-1.42c0.02,0,0.04,0,0.06,0c0.18-0.01,1.35,0,1.35,1.42H21.25z"/>
	<path class="st0" d="M37.38,3.88c-0.02-0.01-0.05-0.02-0.07-0.04c-0.86-0.44-1.85-0.36-2.4-0.26c-0.38,0.07-0.74,0.21-1.05,0.43
		c-1.03,0.72-1.24,1.85-1.24,1.85c-0.4,1.75,0.12,3.01,0.12,3.01c0.45,1.26,1.49,1.72,1.49,1.72c1.42,0.6,2.78,0.1,2.78,0.1
		c1.59-0.54,1.9-2.12,1.9-2.12h-1.34c-0.41,0-0.61,0.22-0.67,0.31c-0.04,0.06-0.09,0.12-0.14,0.16c-0.36,0.31-0.87,0.3-1.03,0.29
		c-0.04,0-0.08,0-0.12-0.01c-1.25-0.06-1.23-1.64-1.23-1.64h4.56c0.02,0,0.04-0.02,0.04-0.03C39.24,4.87,37.6,3.99,37.38,3.88z
		 M34.36,6.47c0,0,0.03-1.39,1.3-1.42c0.02,0,0.04,0,0.06,0c0.18-0.01,1.35,0,1.35,1.42H34.36z"/>
	<path class="st0" d="M26.37,3.66h5.82v1.52L28.44,9.2h3.87v1.56h-6.14V9.33l3.78-4.19h-2.61c-0.12,0-0.24-0.02-0.35-0.06
		c-0.25-0.1-0.63-0.33-0.63-0.86L26.37,3.66z"/>
</g>
<g>
	<text transform="matrix(1 0 0 1 9.748 2.2344)" class="st1 st2 st3">C</text>
	<text transform="matrix(1 0 0 1 11.8818 2.2344)" class="st1 st2 st3">A</text>
	<text transform="matrix(1 0 0 1 25.8369 2.2344)" class="st1 st2 st3">A</text>
	<text transform="matrix(1 0 0 1 13.8799 2.2344)" class="st1 st2 st3">R</text>
	<text transform="matrix(1 0 0 1 17.8799 2.2344)" class="st1 st2 st3">R</text>
	<text transform="matrix(1 0 0 1 19.9961 2.2344)" class="st1 st2 st3">E</text>
	<text transform="matrix(1 0 0 1 21.9941 2.2344)" class="st1 st2 st3">N</text>
	<text transform="matrix(1 0 0 1 24.0933 2.2344)" class="st1 st2 st3">T</text>
	<text transform="matrix(1 0 0 1 27.835 2.2344)" class="st1 st2 st3">L</text>
</g>
</svg>
